<svg xmlns="http://www.w3.org/2000/svg" width="90" height="84" viewBox="0 0 90 84" fill="none">
  <g clip-path="url(#a)" fill="#0C4264">
    <path d="M51.192 31.63c1.313.825 2.453 1.561 3.613 2.252 1.204.725 1.743 1.789 1.73 3.185V49.24a3.36 3.36 0 0 1-.071.836c-.2.78-.717 1.27-1.51 1.28-.795.01-1.336-.46-1.537-1.25a4.654 4.654 0 0 1-.091-1.114c0-3.778-.017-7.554 0-11.33a1.484 1.484 0 0 0-.175-.837 1.46 1.46 0 0 0-.606-.596A6128.945 6128.945 0 0 1 29.06 21.654c-.588-.368-1.02-.336-1.592.022a6917.761 6917.761 0 0 1-23.336 14.49c-.296.151-.54.39-.702.683a1.7 1.7 0 0 0-.203.964c.022 11.454.026 22.91.015 34.364 0 1.251 0 1.251 1.217 1.251h16.567c1.207 0 1.21 0 1.21-1.25V50.36c0-2.798 1.095-3.896 3.874-3.896 4.946 0 9.874.09 14.807-.038 2.7-.07 3.84 1.752 3.816 3.919-.081 7.271-.027 14.545-.04 21.816 0 .706.067 1.266.703 1.782.934.75.52 2.252-.65 2.574-.45.109-.913.158-1.376.145H4.136c-.248 0-.495 0-.742-.022-2.297-.195-3.366-1.364-3.37-3.713v-13.01c0-7.462.024-14.92-.018-22.38 0-1.781.668-2.982 2.174-3.908a3861.98 3861.98 0 0 0 24.208-15.033c1.252-.778 2.473-.838 3.734-.035 1.516.963 3.044 1.901 4.575 2.84.223.135.448.46.724.278.277-.183.127-.52.127-.789V4.033c0-.342 0-.688.02-1.028.163-1.82 1.377-3.003 3.165-3.003 11.32-.01 22.64-.01 33.961 0a3.031 3.031 0 0 1 2.112.82c.574.537.923 1.276.974 2.065.01.093.013.187.012.28v31.838c0 1.151-.6 1.817-1.545 1.837-.99.02-1.593-.638-1.657-1.84-.017-.342 0-.685 0-1.028V4.476c0-1.228-.022-1.25-1.236-1.25h-31.28c-1.27 0-1.273 0-1.273 1.31 0 6.118 0 12.236-.015 18.354 0 .75.2 1.223.86 1.581.868.47 1.707 1 2.53 1.554.68.453.848.203.814-.5a15.493 15.493 0 0 1 0-1.312c.079-2.002 1.323-3.23 3.303-3.253 1.39 0 2.777-.015 4.165 0 1.758.023 3.063 1.252 3.128 3.028a73.916 73.916 0 0 1 0 4.504c-.037 1.501-.893 2.482-2.394 3.138ZM25.448 61.503c0 3.62.02 7.239-.015 10.86 0 .813.227 1.08 1.048 1.073a917.15 917.15 0 0 1 13.878 0c.912 0 1.142-.3 1.137-1.181-.03-7.115-.03-14.23 0-21.344 0-.923-.247-1.25-1.194-1.25-4.565.042-9.13.034-13.692 0-.868 0-1.192.25-1.18 1.163.045 3.563.018 7.11.018 10.679ZM46.17 26.295c0 2.174 0 2.19 2.144 2.17 2.331-.02 2.035.352 2.035-2.095s.309-2.154-2.1-2.154c-2.408 0-2.042-.248-2.08 2.08Z"/>
    <path d="M74.303 50.511c-1.195.028-2.082-.36-2.68-1.25-.325-.476-.577-.501-1.042-.211-1.845 1.173-1.701.79-.606 2.482.99 1.539 2.03 3.055 3.025 4.597 1.194 1.849.937 3.375-.787 4.754-.801.635-1.605 1.268-2.448 1.841-.584.398-.53.678-.064 1.139a494.437 494.437 0 0 1 6.155 6.218c2.329 2.387 1.525 5.74-1.63 6.705-7.7 2.357-15.405 4.693-23.113 7.006-2.527.751-4.77-.68-5.126-3.225a4.047 4.047 0 0 1 .232-1.751c2.31-7.83 4.604-15.661 6.954-23.478.922-3.073 4.263-3.871 6.538-1.604a537.3 537.3 0 0 1 6.471 6.56c.495.501.84.579 1.385.116a31.295 31.295 0 0 1 2.366-1.797c.495-.348.517-.648.183-1.136a385.158 385.158 0 0 1-3.605-5.442c-1.276-1.954-.878-3.693 1.108-4.914l.633-.386c1.236-.75 1.236-.75.769-2.124a3.054 3.054 0 0 1-.018-2.07 3.013 3.013 0 0 1 1.304-1.596c4.286-2.538 8.587-5.046 12.903-7.524 1.535-.87 3.177-.41 4.107 1.089a61.877 61.877 0 0 1 2.268 3.968c.82 1.567.408 3.253-1.103 4.151-4.246 2.538-8.534 5.005-12.805 7.507-.41.26-.89.391-1.374.375ZM49.95 80.765c.232-.058.534-.123.825-.21l22.3-6.756c1.123-.343 1.214-.75.369-1.61a17789.17 17789.17 0 0 0-15.688-15.873c-.922-.93-1.333-.823-1.701.418l-4.99 16.832c-.601 2.03-1.192 4.061-1.793 6.09-.173.576-.193 1.061.677 1.109Zm36.71-40.993c-.073-.145-.15-.313-.247-.475-.301-.543-.6-1.091-.917-1.624-1.014-1.702-.566-1.56-2.27-.583-3.133 1.799-6.246 3.645-9.362 5.467-1.837 1.068-1.84 1.063-.742 2.947 1.044 1.812 1.051 1.824 2.814.801 3.358-1.957 6.717-3.918 10.077-5.885.247-.155.593-.233.648-.648ZM19.523 53.283c0 1.187.017 2.37 0 3.554-.035 1.846-1.09 3.07-2.916 3.237a33.65 33.65 0 0 1-6.27 0c-1.732-.162-2.84-1.326-2.884-3.077a137.108 137.108 0 0 1 0-7.48c.054-1.86 1.35-3.047 3.178-3.062 1.909-.017 3.818-.017 5.729 0 1.798.015 3.093 1.269 3.153 3.09.042 1.251 0 2.502 0 3.738h.01Zm-8.88-.017c0 .968.015 1.934 0 2.903-.012.555.208.783.764.775 1.386-.023 2.774-.023 4.162 0 .573 0 .742-.25.742-.796a384.594 384.594 0 0 1 0-5.612c0-.59-.223-.858-.816-.85-1.357.014-2.714.014-4.07 0-.616-.008-.802.295-.79.868.023.903.005 1.809.008 2.712Zm42.945-40.465c0 .75.025 1.501 0 2.252-.072 1.681-1.14 2.872-2.792 3.068-1.622.186-3.26.191-4.883.015-1.773-.188-2.852-1.354-2.918-3.15a60.705 60.705 0 0 1 0-4.3c.066-1.953 1.332-3.167 3.259-3.184 1.414 0 2.831-.015 4.248 0a3.027 3.027 0 0 1 2.124.855c.57.554.907 1.31.937 2.11.047.775 0 1.556 0 2.334h.025Zm-3.215 0c-.024-2.327.285-2.082-2.084-2.082-2.424 0-2.095-.25-2.092 2.155.002 2.404-.324 2.074 2.025 2.096 2.151.028 2.151.013 2.151-2.159v-.01ZM63.1 7.494h2.125c1.76.028 3.076 1.251 3.143 3.003.06 1.556.062 3.117 0 4.671a3.022 3.022 0 0 1-.8 2 2.954 2.954 0 0 1-1.92.94c-1.653.195-3.322.2-4.975.018-1.731-.183-2.81-1.331-2.884-3.08a50.279 50.279 0 0 1 0-4.487c.087-1.861 1.355-3.032 3.183-3.062.712-.013 1.422-.003 2.129-.003Zm-.041 7.489c2.426-.04 2.08.363 2.114-2.117v-.095c-.025-2.27.265-2.047-2.032-2.042-2.493 0-2.145-.282-2.147 2.192-.002 2.412-.312 2.022 2.065 2.062Zm.059 5.995h2.124c1.756.028 3.064 1.251 3.128 3.003a64.2 64.2 0 0 1 0 4.579 3.05 3.05 0 0 1-.783 2.057 2.981 2.981 0 0 1-1.954.975 21.91 21.91 0 0 1-4.975.015c-1.716-.187-2.794-1.34-2.869-3.095a54.562 54.562 0 0 1 0-4.394c.077-1.941 1.353-3.12 3.299-3.14.675-.005 1.353 0 2.03 0Zm2.055 5.32c-.027-2.327.284-2.085-2.087-2.082-2.423 0-2.094-.265-2.092 2.152.002 2.417-.324 2.077 2.025 2.097 2.154.02 2.154.005 2.154-2.167Z"/>
    <path d="M63.165 34.465h2.124c1.697.032 3.007 1.25 3.076 2.967a57.71 57.71 0 0 1 0 4.672c-.059 1.626-1.164 2.787-2.779 2.977-1.622.186-3.26.19-4.884.015-1.773-.187-2.85-1.35-2.918-3.15a57.965 57.965 0 0 1 0-4.298c.065-1.955 1.33-3.163 3.255-3.186.71-.005 1.416 0 2.126.003Zm-.084 7.489c2.092 0 2.102 0 2.09-2.14-.018-2.354.291-2.116-2.053-2.114-2.45 0-2.112-.268-2.129 2.122-.015 2.132-.002 2.132 2.092 2.132Z"/>
  </g>
  <defs>
    <clipPath id="a">
      <path fill="#fff" d="M0 0h90v84H0z"/>
    </clipPath>
  </defs>
</svg>
