<svg width="83" height="70" viewBox="0 0 83 70" fill="none" xmlns="http://www.w3.org/2000/svg">
<path d="M51.2679 25.3948V34.5752C51.2679 37.2099 51.5512 38.8474 52.13 39.4999C52.9099 40.4055 54.0922 40.8583 55.6768 40.8583H57.2777V41.9622H39.3058V40.8214H40.8863C42.6596 40.8214 43.9363 40.2427 44.6957 39.0936C45.1063 38.4616 45.3197 36.9432 45.3197 34.5793V24.5618C47.2852 24.9509 49.2711 25.229 51.2679 25.3948ZM38.5956 22.9325V27.4263H37.4585C37.1712 25.3743 36.8838 24.0611 36.5924 23.4824C36.1893 22.7304 35.5484 22.1329 34.7697 21.7834C34.6096 21.7096 34.4372 21.6398 34.2484 21.5741C35.6769 22.0379 37.1301 22.4934 38.6121 22.9161L38.5956 22.9325ZM34.2443 21.5741C33.1498 21.2664 32.0146 21.128 30.8781 21.1637H29.581V34.9856C29.581 36.8406 29.6672 37.9692 29.8231 38.3713C29.9963 38.7782 30.3014 39.115 30.6893 39.3275C31.0998 39.5697 31.8921 39.6887 33.0415 39.6887H36.736C37.1055 39.6887 42.7376 36.5656 43.0742 36.5574L37.791 41.9622H17.6353V40.8214H19.1254C20.1088 40.8209 21.0767 40.5755 21.9415 40.1073C22.2551 39.9623 22.5363 39.7557 22.7683 39.4998C23.0003 39.2438 23.1784 38.9438 23.292 38.6176C23.5342 37.9527 23.6491 36.6067 23.6491 34.5588V17.6098C26.8388 18.882 30.4471 20.2896 34.2443 21.5577V21.5741Z" fill="white"/>
<path d="M51.2679 25.3948V34.5752C51.2679 37.2099 51.5512 38.8474 52.13 39.4999C52.9099 40.4055 54.0922 40.8583 55.6768 40.8583H57.2777V41.9622H39.3058V40.8214H40.8863C42.6596 40.8214 43.9363 40.2427 44.6957 39.0936C45.1063 38.4616 45.3197 36.9432 45.3197 34.5793V24.5618C47.2852 24.9509 49.2711 25.229 51.2679 25.3948ZM38.5956 22.9325V27.4263H37.4585C37.1712 25.3743 36.8838 24.0611 36.5924 23.4824C36.1893 22.7304 35.5484 22.1329 34.7697 21.7834C34.6096 21.7096 34.4372 21.6398 34.2484 21.5741C35.6769 22.0379 37.1301 22.4934 38.6121 22.9161L38.5956 22.9325ZM34.2443 21.5741C33.1498 21.2664 32.0146 21.128 30.8781 21.1637H29.581V34.9856C29.581 36.8406 29.6672 37.9692 29.8231 38.3713C29.9963 38.7782 30.3014 39.115 30.6893 39.3275C31.0998 39.5697 31.8921 39.6887 33.0415 39.6887H36.736C37.1055 39.6887 42.7376 36.5656 43.0742 36.5574L37.791 41.9622H17.6353V40.8214H19.1254C20.1088 40.8209 21.0767 40.5755 21.9415 40.1073C22.2551 39.9623 22.5363 39.7557 22.7683 39.4998C23.0003 39.2438 23.1784 38.9438 23.292 38.6176C23.5342 37.9527 23.6491 36.6067 23.6491 34.5588V17.6098C26.8388 18.882 30.4471 20.2896 34.2443 21.5577V21.5741Z" fill="#0C4264"/>
<path fill-rule="evenodd" clip-rule="evenodd" d="M51.2679 20.5112L51.3665 20.5441C52.4133 20.7451 53.3492 20.897 54.1661 20.9873C54.8792 21.0849 55.5975 21.1383 56.3172 21.1473C57.3634 21.1516 58.3984 20.9314 59.3523 20.5017C60.3062 20.072 61.1568 19.4427 61.8467 18.6563C63.3943 17.0147 64.1783 14.8602 64.1783 12.2378C64.1937 10.4919 63.8148 8.76508 63.07 7.1859C62.41 5.72673 61.3107 4.51006 59.9255 3.70581C58.513 2.92676 56.9202 2.53328 55.3073 2.56493C53.943 2.61041 52.5881 2.80864 51.2679 3.15589V20.5112ZM37.1876 14.8766C37.3358 14.1918 37.4264 13.4958 37.4586 12.7959H38.6121V15.4347C40.8863 16.354 43.1276 17.3225 45.3362 18.2377V7.41573C45.3362 4.78103 45.0625 3.14768 44.5151 2.51568C43.394 2.35168 42.2614 2.27894 41.1285 2.29818H29.581V12.4143C32.1665 13.072 34.7072 13.8944 37.1876 14.8766ZM33.957 18.5701C32.512 18.0161 31.0588 17.4661 29.5974 16.9285L28.7764 16.6413L28.6984 16.6166L27.9184 16.3499L27.6968 16.276L27.6023 16.2432L27.0564 16.0626L26.6459 15.9354L26.2846 15.8205L26.1943 15.7918L25.5662 15.5989H25.5416L25.4472 15.5701L25.3569 15.5414L24.6098 15.3198L24.5153 15.2952L24.4209 15.2665L23.6738 15.0613C19.7371 13.9943 15.747 13.354 11.6747 13.6044C15.4213 11.8618 19.5539 11.1141 23.6738 11.4334V7.29261C23.6738 4.63329 23.4111 2.99994 22.8733 2.36794C22.1221 1.54717 20.8906 1.13678 19.15 1.13678H17.6353V0H54.6833C58.4395 0 61.391 0.410392 63.5667 1.1573C65.7213 1.9245 67.6173 3.281 69.0387 5.0724C70.5276 6.91507 71.3159 9.22528 71.2636 11.5935C71.2636 15.0243 70.1348 17.8081 67.877 19.9449C67.3383 20.4582 66.745 20.911 66.1077 21.2951C67.6645 20.7166 69.1246 19.9058 70.4385 18.8902C63.9936 23.8682 57.6349 24.8203 51.2556 23.9175L50.7877 23.8477L50.3279 23.7738L49.9174 23.6999L49.4453 23.6097L49.0348 23.5317L48.9404 23.5112L48.5299 23.425L48.0906 23.3265L47.6309 23.2198L47.1875 23.109L46.7072 22.99L46.2721 22.8751L45.8616 22.7602L45.3485 22.6124C43.1112 21.9681 40.8699 21.1802 38.6121 20.3389L38.5423 20.3101H38.5095H38.4684L38.3986 20.2814L38.3247 20.2568L38.1811 20.1993L38.1072 20.1747L38.0333 20.146H37.9799L37.906 20.1173L37.8362 20.0885H37.7911H37.7623L37.6884 20.0598L37.5448 20.0064L37.4709 19.9818L37.4011 19.9531L37.3272 19.9285H37.2985H37.2574L37.1835 19.8997L37.1096 19.871L37.0522 19.8505L36.9783 19.8218L36.9044 19.793L36.8346 19.7643L36.5883 19.6699H36.5596L33.957 18.5701Z" fill="#CA0114"/>
<path d="M1.50655 51.1714C1.50655 48.4751 1.50655 47.9908 1.4696 47.4368C1.43266 46.8828 1.29719 46.5709 0.726589 46.4519C0.533141 46.4149 0.336521 46.397 0.13957 46.3985C0.0697843 46.3985 0 46.3616 0 46.2959C0 46.2303 0.086203 46.1564 0.27914 46.1564C0.689645 46.1564 1.1412 46.1564 1.51066 46.1564L2.22083 46.1933C2.33988 46.1933 5.78401 46.1933 6.1822 46.1728C6.43192 46.1658 6.68053 46.137 6.92522 46.0866C7.01142 46.0866 7.08121 46.0005 7.16741 46.0005C7.25362 46.0005 7.2372 46.0702 7.2372 46.1564C7.2372 46.2426 7.151 46.4847 7.09763 46.9772C7.09763 47.1495 7.04836 47.9129 7.01142 48.1181C7.01142 48.2042 6.96217 48.3109 6.89238 48.3109C6.8226 48.3109 6.75281 48.2248 6.75281 48.0852C6.7544 47.873 6.71969 47.662 6.65019 47.4614C6.52703 47.1865 6.35462 46.9772 5.41867 46.8746C5.12311 46.8377 3.23888 46.8212 3.04594 46.8212C2.97615 46.8212 2.94331 46.8746 2.94331 46.9936V51.7705C2.94331 51.8895 2.94331 51.9429 3.04594 51.9429C3.27172 51.9429 5.39814 51.9429 5.79633 51.906C6.19452 51.869 6.45314 51.8362 6.61734 51.6638C6.78154 51.4915 6.81028 51.4422 6.88007 51.4422C6.94985 51.4422 6.96627 51.475 6.96627 51.5776C6.96627 51.6802 6.88007 51.988 6.8267 52.5462C6.78975 52.895 6.75691 53.5311 6.75691 53.6542C6.75691 53.7773 6.7569 53.9825 6.63786 53.9825C6.51881 53.9825 6.51471 53.9128 6.51471 53.8266C6.52293 53.6339 6.49936 53.4412 6.44493 53.2561C6.37515 53.014 6.21915 52.7185 5.54593 52.6529C5.07795 52.5995 3.36614 52.5626 3.0829 52.5626C3.06657 52.5612 3.05015 52.5636 3.03483 52.5693C3.0195 52.5751 3.00565 52.5842 2.99426 52.596C2.98288 52.6078 2.97424 52.6219 2.96898 52.6374C2.96372 52.6529 2.96197 52.6694 2.96385 52.6857V54.2082C2.96385 54.7951 2.96385 56.8019 2.96385 57.1671C3.01721 58.3573 3.27582 58.583 4.97121 58.583C5.52524 58.6119 6.08022 58.5481 6.61323 58.3942C7.06478 58.2013 7.27415 57.8566 7.3932 57.163C7.42604 56.9743 7.46297 56.9045 7.54918 56.9045C7.63539 56.9045 7.65181 57.044 7.65181 57.163C7.60663 57.7262 7.53127 58.2865 7.42603 58.8415C7.30699 59.2929 7.16742 59.293 6.49419 59.293C5.197 59.293 4.24463 59.256 3.5714 59.2396C2.89817 59.2232 2.48766 59.1986 2.23315 59.1986C2.1962 59.1986 1.90474 59.1986 1.53939 59.2191C1.17404 59.2396 0.796379 59.2519 0.53776 59.2519C0.344823 59.2519 0.25862 59.2191 0.25862 59.1124C0.25862 59.0057 0.295564 59.0098 0.39819 59.0098C0.573927 59.0047 0.748651 58.9814 0.919527 58.94C1.26435 58.8702 1.35056 58.4927 1.42034 57.9879C1.50655 57.2615 1.50655 55.8949 1.50655 54.237V51.1714Z" fill="#0C4264"/>
<path d="M14.8644 52.5544L12.0935 47.9047C11.683 47.2276 11.3341 46.7269 10.747 46.5176C10.5104 46.4491 10.2665 46.4092 10.0204 46.3986C9.91371 46.3986 9.86445 46.3452 9.86445 46.2754C9.86445 46.2057 9.93423 46.1564 10.1559 46.1564C10.6403 46.1564 12.0442 46.2098 12.1797 46.2098C12.3152 46.2098 13.2183 46.1564 13.8217 46.1564C14.0639 46.1564 14.1132 46.1893 14.1132 46.2754C14.1132 46.3616 14.0639 46.3986 13.9572 46.3986C13.7994 46.3918 13.6415 46.4098 13.4892 46.4519C13.4272 46.4703 13.3732 46.5091 13.3359 46.5619C13.2987 46.6148 13.2804 46.6787 13.284 46.7433C13.2957 46.9443 13.3548 47.1398 13.4564 47.3137C14.183 48.6803 14.8931 49.9607 15.7921 51.4504C16.3094 50.7035 18.1607 47.7569 18.3373 47.3835C18.4433 47.1921 18.5024 46.9783 18.5097 46.7597C18.4972 46.6846 18.4623 46.615 18.4096 46.5601C18.3568 46.5051 18.2887 46.4674 18.2141 46.4519C18.0449 46.4111 17.8709 46.3932 17.6969 46.3986C17.5901 46.3986 17.5409 46.3616 17.5409 46.2754C17.5409 46.1893 17.6271 46.1564 17.8324 46.1564C18.4892 46.1564 19.2158 46.2098 19.3717 46.2098C19.5277 46.2098 20.2379 46.1564 20.8249 46.1564C21.0179 46.1564 21.1041 46.2098 21.1041 46.2754C21.1041 46.3411 21.0343 46.3986 20.9111 46.3986C20.7177 46.3982 20.5253 46.4272 20.3405 46.4847C19.8397 46.6407 19.5195 47.1414 19.0105 47.8842L16.2232 52.0701C16.5516 52.6077 19.5072 57.6391 19.8767 58.1069C20.1131 58.4791 20.4738 58.7554 20.8947 58.8867C21.0926 58.944 21.2965 58.9784 21.5023 58.9893C21.5885 58.9893 21.6418 59.0221 21.6418 59.0919C21.6418 59.1616 21.5515 59.2314 21.3996 59.2314C20.3405 59.2314 19.5113 59.2314 18.6287 59.1986C18.1813 59.1781 18.0951 59.1452 18.0951 59.0591C18.0923 59.0273 18.1012 58.9957 18.1201 58.97C18.139 58.9443 18.1666 58.9264 18.1977 58.9195C18.2839 58.8867 18.4399 58.7143 18.2839 58.4353C17.348 56.7404 16.3463 55.029 15.3077 53.2808L12.6107 57.8648C12.4776 58.0985 12.4003 58.3597 12.3849 58.6281C12.3855 58.7063 12.4133 58.7818 12.4635 58.8417C12.5137 58.9016 12.5831 58.9422 12.66 58.9565C12.7686 58.9747 12.8783 58.9857 12.9884 58.9893C13.0058 58.9876 13.0233 58.9895 13.0399 58.9949C13.0565 59.0002 13.0719 59.009 13.0849 59.0205C13.098 59.0321 13.1086 59.0462 13.116 59.062C13.1234 59.0778 13.1275 59.095 13.128 59.1124C13.128 59.1986 13.0418 59.2314 12.9186 59.2314C12.5081 59.2314 11.4162 59.1781 11.2766 59.1781C11.137 59.1781 10.2709 59.2314 9.70025 59.2314C9.56478 59.2314 9.52783 59.1781 9.52783 59.1124C9.52831 59.095 9.53238 59.0778 9.53978 59.062C9.54718 59.0462 9.55776 59.0321 9.57085 59.0205C9.58394 59.009 9.59926 59.0002 9.61588 58.9949C9.63249 58.9895 9.65003 58.9876 9.6674 58.9893C9.88906 58.9879 10.1097 58.9589 10.3242 58.9031C10.8414 58.7636 11.2068 58.386 11.761 57.5037L14.8644 52.5544Z" fill="#0C4264"/>
<path d="M24.4497 57.6063C22.7707 56.1001 22.3561 54.1303 22.3561 52.4846C22.3754 50.7218 23.0687 49.0332 24.2937 47.7651C25.3322 46.7269 26.9045 45.9143 29.5687 45.9143C30.409 45.9132 31.2479 45.9818 32.0768 46.1195C32.6595 46.2417 33.249 46.3294 33.842 46.3821C34.035 46.3821 34.0678 46.4683 34.0678 46.5709C34.0678 46.6735 34.0144 46.9156 33.9816 47.5394C33.9487 48.1632 33.9446 49.062 33.9282 49.3205C33.9118 49.5791 33.879 49.6858 33.7722 49.6858C33.6655 49.6858 33.6368 49.5626 33.6368 49.3205C33.6423 48.9924 33.5806 48.6666 33.4557 48.3632C33.3308 48.0597 33.1451 47.785 32.9102 47.5558C32.3026 47.0388 30.9726 46.5709 29.4496 46.5709C27.1467 46.5709 26.0753 47.2439 25.4677 47.8349C24.2075 49.0456 23.9119 50.5845 23.9119 52.3492C23.901 53.176 24.0545 53.9967 24.3633 54.7637C24.6722 55.5308 25.1303 56.2289 25.7111 56.8175C26.292 57.4062 26.9839 57.8737 27.7469 58.193C28.5098 58.5123 29.3286 58.6769 30.1557 58.6774C31.457 58.6774 32.475 58.5214 33.1688 57.8115C33.4968 57.3862 33.7165 56.8876 33.8092 56.3587C33.842 56.1699 33.879 56.1001 33.9816 56.1001C34.0842 56.1001 34.1006 56.2232 34.1006 56.3587C34.0215 57.1046 33.8953 57.8448 33.723 58.5748C33.6162 58.9031 33.5834 58.9359 33.2714 59.0755C32.2611 59.3762 31.2094 59.5147 30.1557 59.4858C27.5613 59.4735 25.8166 58.8333 24.4497 57.6063Z" fill="#0C4264"/>
<path d="M38.255 51.1714C38.255 48.4751 38.255 47.9908 38.2221 47.4368C38.1893 46.8828 38.0456 46.5709 37.475 46.4519C37.2816 46.4149 37.0849 46.397 36.888 46.3985C36.8182 46.3985 36.7484 46.3616 36.7484 46.2959C36.7484 46.2303 36.8346 46.1564 37.0276 46.1564C37.4381 46.1564 37.8937 46.1564 38.2591 46.1564L38.9692 46.1933C39.0924 46.1933 42.5324 46.1933 42.9306 46.1728C43.1803 46.1661 43.429 46.1373 43.6736 46.0866C43.7598 46.0866 43.8296 46.0005 43.9158 46.0005C44.002 46.0005 43.9856 46.0702 43.9856 46.1564C43.9856 46.2426 43.8994 46.4847 43.8502 46.9772C43.8296 47.1495 43.7968 47.9129 43.7598 48.1181C43.7598 48.2042 43.7106 48.3109 43.6408 48.3109C43.571 48.3109 43.5012 48.2248 43.5012 48.0852C43.5028 47.873 43.4681 47.662 43.3986 47.4614C43.2754 47.1865 43.103 46.9772 42.1671 46.8746C41.8715 46.8377 39.9873 46.8212 39.7944 46.8212C39.7287 46.8212 39.6917 46.8746 39.6917 46.9936V51.7705C39.6917 51.8895 39.6917 51.9429 39.7944 51.9429C40.0201 51.9429 42.1507 51.9429 42.5447 51.906C42.9388 51.869 43.2057 51.8362 43.3658 51.6638C43.5258 51.4915 43.5546 51.4422 43.6244 51.4422C43.6942 51.4422 43.7106 51.475 43.7106 51.5776C43.7106 51.6802 43.6244 51.988 43.571 52.5462C43.5382 52.895 43.5012 53.5311 43.5012 53.6542C43.5012 53.7773 43.5012 53.9825 43.3822 53.9825C43.2631 53.9825 43.259 53.9128 43.259 53.8266C43.2673 53.6339 43.2437 53.4412 43.1892 53.2561C43.1236 53.014 42.9676 52.7185 42.2902 52.6529C41.8223 52.5995 40.1104 52.5626 39.8272 52.5626C39.8106 52.5606 39.7937 52.5624 39.7778 52.5679C39.762 52.5734 39.7476 52.5824 39.7357 52.5943C39.7239 52.6061 39.7149 52.6205 39.7094 52.6363C39.7039 52.6522 39.7021 52.669 39.7041 52.6857V54.2082C39.7041 54.7951 39.7041 56.8019 39.7041 57.1671C39.7574 58.3573 40.016 58.583 41.7114 58.583C42.2723 58.6137 42.8343 58.5499 43.374 58.3942C43.8214 58.2013 44.0308 57.8566 44.1498 57.163C44.1868 56.9743 44.2196 56.9045 44.3058 56.9045C44.392 56.9045 44.4084 57.044 44.4084 57.163C44.3629 57.7259 44.2889 58.2861 44.1868 58.8415C44.0636 59.2929 43.924 59.293 43.2508 59.293C41.9536 59.293 41.0012 59.256 40.328 59.2396C39.6548 59.2232 39.2361 59.1862 38.9775 59.1862C38.9446 59.1862 38.6491 59.1862 38.2837 59.2068C37.9184 59.2273 37.5407 59.2396 37.2821 59.2396C37.0932 59.2396 37.007 59.2068 37.007 59.1001C37.007 58.9934 37.0399 58.9975 37.1425 58.9975C37.3182 58.9924 37.493 58.969 37.6638 58.9277C38.0087 58.8579 38.0949 58.4804 38.1647 57.9756C38.2509 57.2492 38.2509 55.8826 38.2509 54.2246L38.255 51.1714Z" fill="#0C4264"/>
<path d="M50.2622 54.2493C50.2622 56.7937 50.332 57.9017 50.644 58.2095C50.956 58.5173 51.3706 58.6199 52.7211 58.6199C53.6366 58.6199 54.396 58.6199 54.8147 58.1028C55.0424 57.7961 55.1956 57.4406 55.2622 57.0645C55.2622 56.925 55.3155 56.8388 55.4182 56.8388C55.5208 56.8388 55.5208 56.9086 55.5208 57.0974C55.4814 57.6807 55.3949 58.2599 55.2622 58.8292C55.1431 59.2396 55.0898 59.2971 54.1743 59.2971C52.9428 59.2971 52.0274 59.2601 51.3008 59.2437C50.5742 59.2273 50.0364 59.1904 49.5356 59.1904C49.4658 59.1904 49.1744 59.2109 48.8255 59.2109C48.4765 59.2109 48.0989 59.2437 47.8403 59.2437C47.6514 59.2437 47.5652 59.2109 47.5652 59.1042C47.5652 58.9975 47.5981 59.0016 47.7007 59.0016C47.8764 58.9965 48.0511 58.9732 48.222 58.9318C48.5668 58.8621 48.6325 58.4845 48.7228 57.9797C48.809 57.2533 48.809 55.8867 48.809 54.2288V51.1837C48.809 48.4874 48.809 48.0032 48.7762 47.4491C48.7434 46.8951 48.6038 46.5832 48.0291 46.4642C47.8356 46.4272 47.639 46.4093 47.4421 46.4109C47.3723 46.4109 47.3025 46.3739 47.3025 46.3083C47.3025 46.2426 47.3928 46.1687 47.5816 46.1687C48.3616 46.1687 49.4494 46.2221 49.5356 46.2221C49.6218 46.2221 50.8862 46.1687 51.4034 46.1687C51.5964 46.1687 51.6826 46.2016 51.6826 46.3083C51.6826 46.415 51.6128 46.4109 51.543 46.4109C51.3517 46.4139 51.1609 46.4318 50.9724 46.4642C50.4716 46.5504 50.332 46.8418 50.2992 47.4491C50.2663 48.0565 50.2622 48.4874 50.2622 51.1837V54.2493Z" fill="#0C4264"/>
<path d="M61.7153 46.5873C61.9246 46.0169 61.9944 45.9143 62.097 45.9143C62.1997 45.9143 62.2695 46.0005 62.4788 46.5381C62.7374 47.1947 65.455 54.3355 66.51 56.9661C67.1298 58.505 67.6348 58.78 67.996 58.8867C68.2205 58.957 68.4546 58.9916 68.6898 58.9893C68.7924 58.9893 68.8622 58.9893 68.8622 59.0919C68.8622 59.1945 68.7062 59.2314 68.5174 59.2314C68.2546 59.2314 66.9944 59.2314 65.7998 59.1986C65.4714 59.1781 65.2785 59.1781 65.2785 59.0755C65.2785 58.9729 65.3318 58.9729 65.4016 58.9565C65.4714 58.94 65.611 58.7636 65.5042 58.4886L63.8951 54.2329C63.8848 54.2004 63.8637 54.1725 63.8353 54.1538C63.8069 54.1351 63.7729 54.1268 63.7391 54.1303H60.0199C59.9337 54.1303 59.8844 54.1795 59.8475 54.2657L58.8089 57.3272C58.6657 57.6986 58.5839 58.0909 58.5667 58.4886C58.5667 58.8333 58.9321 58.9893 59.2235 58.9893H59.4C59.5191 58.9893 59.5724 59.0221 59.5724 59.0919C59.5724 59.1616 59.4657 59.2314 59.3097 59.2314C58.8992 59.2314 58.1521 59.1781 57.9633 59.1781C57.7744 59.1781 56.8221 59.2314 56.0093 59.2314C55.7835 59.2314 55.6768 59.1986 55.6768 59.0919C55.6768 58.9852 55.7465 58.9893 55.8328 58.9893C55.919 58.9893 56.1981 58.9893 56.3377 58.9565C57.1299 58.8498 57.4789 58.1931 57.7909 57.3149L61.7153 46.5873ZM63.5174 53.5065C63.6036 53.5065 63.6036 53.4531 63.5831 53.3875L61.9411 48.7173C61.8562 48.4437 61.77 48.4437 61.6824 48.7173L60.1595 53.3875C60.1266 53.4737 60.1595 53.5065 60.2128 53.5065H63.5174Z" fill="#0C4264"/>
<path d="M71.3376 51.1714C71.3376 48.4751 71.3376 47.9909 71.3006 47.4368C71.2637 46.8828 71.1282 46.5709 70.5576 46.4519C70.3641 46.4151 70.1675 46.3973 69.9706 46.3986C69.9008 46.3986 69.831 46.3616 69.831 46.296C69.831 46.2303 69.9172 46.1564 70.1101 46.1564C70.886 46.1564 71.9779 46.2098 72.0641 46.2098C72.253 46.2098 73.5666 46.1564 74.1167 46.1564C75.2086 46.1564 76.3662 46.259 77.2817 46.9157C77.6458 47.1926 77.9424 47.5485 78.1493 47.9564C78.3562 48.3644 78.468 48.8139 78.4762 49.2713C78.4762 50.5476 77.9385 51.828 76.3827 53.2644C77.803 55.0824 78.9771 56.6213 79.9828 57.6925C80.9146 58.6774 81.6617 58.8703 82.0928 58.9236C82.3153 58.9602 82.5405 58.9781 82.766 58.977C82.8522 58.977 82.922 59.0303 82.922 59.0796C82.922 59.1288 82.8194 59.2191 82.5115 59.2191H81.28C80.3112 59.2191 79.8761 59.1329 79.4286 58.8908C78.6856 58.4804 78.078 57.6596 77.0928 56.3464C76.3662 55.3984 75.5534 54.237 75.2086 53.7897C75.1816 53.7558 75.1473 53.7286 75.1081 53.7101C75.069 53.6916 75.0261 53.6823 74.9828 53.683L72.8523 53.6501C72.7661 53.6501 72.7333 53.7035 72.7333 53.7897V54.2001C72.7333 55.8416 72.7333 57.2246 72.8195 57.951C72.8728 58.4558 72.9755 58.8333 73.4927 58.9031C73.7512 58.9409 74.0116 58.9642 74.2727 58.9729C74.3753 58.9729 74.4122 59.0262 74.4122 59.0755C74.4122 59.1247 74.326 59.215 74.1331 59.215C73.1807 59.215 72.0806 59.1617 72.0067 59.1617C72.0067 59.1617 70.8983 59.215 70.3647 59.215C70.1717 59.215 70.0855 59.1822 70.0855 59.0755C70.0855 58.9688 70.1225 58.9729 70.2251 58.9729C70.3995 58.968 70.5729 58.9446 70.7423 58.9031C71.0912 58.8333 71.1775 58.4558 71.2472 57.951C71.3334 57.2246 71.3334 55.858 71.3334 54.2001L71.3376 51.1714ZM72.721 52.6775C72.7188 52.7196 72.7289 52.7613 72.75 52.7978C72.7712 52.8342 72.8024 52.8637 72.84 52.8827C73.4223 53.0929 74.04 53.1877 74.6585 53.1618C75.1142 53.1862 75.5666 53.0717 75.9557 52.8335C76.5633 52.4231 77.0107 51.4833 77.0107 50.17C77.0107 48.0073 75.8695 46.7105 74.0181 46.7105C73.6296 46.7008 73.2413 46.7352 72.8605 46.8131C72.8177 46.8281 72.781 46.8567 72.7558 46.8944C72.7306 46.9322 72.7184 46.9771 72.721 47.0223V52.6775Z" fill="#0C4264"/>
<path d="M15.4801 65.1082C15.4801 64.0494 15.4801 63.877 15.4801 63.639C15.4801 63.401 15.4144 63.2984 15.1886 63.2532C15.113 63.2379 15.0359 63.231 14.9588 63.2327C14.93 63.2327 14.9054 63.2327 14.9054 63.1917C14.9054 63.1506 14.9382 63.1383 15.0121 63.1383C15.32 63.1383 15.7264 63.1383 15.7798 63.1383C15.9317 63.1383 16.3257 63.1383 16.6377 63.1383C17.4875 63.1383 17.7953 63.4215 17.9021 63.5241C18.1192 63.7422 18.2417 64.0371 18.2428 64.3448C18.2495 64.5638 18.2104 64.7816 18.1282 64.9846C18.0459 65.1876 17.9222 65.3712 17.765 65.5237C17.6078 65.6763 17.4205 65.7944 17.2151 65.8705C17.0097 65.9466 16.7907 65.9791 16.572 65.9659C16.5242 65.9701 16.4762 65.9701 16.4284 65.9659C16.3955 65.9659 16.3545 65.9659 16.3545 65.9166C16.3545 65.8674 16.3955 65.8551 16.5351 65.8551C16.6857 65.8617 16.8362 65.838 16.9775 65.7856C17.1188 65.7331 17.2482 65.6529 17.3581 65.5496C17.4679 65.4463 17.5559 65.3221 17.6169 65.1842C17.6779 65.0464 17.7107 64.8977 17.7132 64.747C17.7221 64.556 17.6929 64.3652 17.6273 64.1855C17.5618 64.0059 17.4612 63.841 17.3315 63.7005C17.2098 63.5801 17.0636 63.4873 16.9027 63.4286C16.7419 63.3698 16.5703 63.3464 16.3996 63.3599C16.3009 63.3575 16.2024 63.3714 16.1082 63.4009C16.0671 63.4009 16.0548 63.4625 16.0548 63.5323V66.327C16.0548 66.9795 16.0548 67.5171 16.0877 67.8003C16.1082 67.9973 16.1492 68.1492 16.3545 68.1779C16.4489 68.1779 16.5967 68.2025 16.6582 68.2025C16.7198 68.2025 16.7116 68.223 16.7116 68.2435C16.7116 68.2641 16.6788 68.2969 16.6049 68.2969C16.2313 68.2969 15.7839 68.2764 15.7839 68.2764C15.7839 68.2764 15.3364 68.2969 15.1312 68.2969C15.0573 68.2969 15.0203 68.2969 15.0203 68.2435C15.0203 68.1902 15.0203 68.2025 15.0778 68.2025C15.1455 68.2006 15.2128 68.1924 15.279 68.1779C15.4185 68.1492 15.4514 67.9973 15.476 67.8003C15.5129 67.5171 15.5129 66.9795 15.5129 66.327L15.4801 65.1082Z" fill="#0C4264"/>
<path d="M22.2945 65.1082C22.2945 64.0494 22.2945 63.877 22.2945 63.639C22.2945 63.401 22.2247 63.2984 21.9989 63.2532C21.9233 63.2379 21.8462 63.231 21.7691 63.2327C21.7403 63.2327 21.7157 63.2327 21.7157 63.1917C21.7157 63.1506 21.7485 63.1383 21.8224 63.1383C22.1303 63.1383 22.5572 63.1383 22.5942 63.1383C22.6311 63.1383 23.1853 63.1383 23.3947 63.1383C23.8263 63.1083 24.2566 63.213 24.6262 63.4379C24.7701 63.5456 24.8875 63.6848 24.9693 63.8448C25.0512 64.0049 25.0953 64.1815 25.0983 64.3613C25.0835 64.6671 25.0024 64.966 24.8606 65.2374C24.7188 65.5088 24.5198 65.7461 24.2772 65.9331C24.8355 66.6471 25.2994 67.2504 25.6935 67.6731C25.9012 67.9274 26.1919 68.1003 26.5145 68.1615C26.6027 68.1755 26.692 68.1824 26.7813 68.182C26.8142 68.182 26.8429 68.2025 26.8429 68.223C26.8429 68.2435 26.8019 68.2764 26.6787 68.2764H26.1943C25.9451 68.3003 25.694 68.2563 25.4677 68.1492C25.0997 67.8775 24.7875 67.5376 24.5482 67.1478C24.2649 66.7743 23.9447 66.327 23.8052 66.1424C23.7955 66.1288 23.7825 66.1179 23.7674 66.1107C23.7523 66.1035 23.7356 66.1003 23.719 66.1013H22.898C22.8651 66.1013 22.8528 66.1013 22.8528 66.1547V66.3188C22.8528 66.9713 22.8528 67.5089 22.8856 67.7921C22.8856 67.9891 22.9472 68.1409 23.1484 68.1697C23.2469 68.1697 23.3947 68.1943 23.4562 68.1943C23.5178 68.1943 23.5096 68.2148 23.5096 68.2353C23.5096 68.2558 23.4768 68.2887 23.4029 68.2887C23.0293 68.2887 22.5819 68.2682 22.5819 68.2682C22.5819 68.2682 22.1467 68.2887 21.9415 68.2887C21.8676 68.2887 21.8347 68.2887 21.8347 68.2353C21.8347 68.182 21.8348 68.1943 21.8881 68.1943C21.9571 68.1922 22.0258 68.1839 22.0934 68.1697C22.2288 68.1409 22.2617 67.9891 22.2904 67.7921C22.3232 67.5089 22.3233 66.9713 22.3233 66.3188L22.2945 65.1082ZM22.8405 65.6991C22.8393 65.7157 22.8429 65.7323 22.8509 65.7468C22.859 65.7614 22.871 65.7733 22.8856 65.7812C23.1142 65.8645 23.3569 65.9021 23.5999 65.892C23.7791 65.9023 23.9571 65.8564 24.1089 65.7607C24.2556 65.6314 24.3692 65.469 24.4406 65.287C24.512 65.105 24.539 64.9087 24.5195 64.7142C24.5195 63.8647 24.072 63.3558 23.3454 63.3558C23.1925 63.3522 23.0396 63.3659 22.8897 63.3969C22.8731 63.4016 22.8587 63.412 22.849 63.4262C22.8392 63.4404 22.8348 63.4576 22.8364 63.4748L22.8405 65.6991Z" fill="#0C4264"/>
<path d="M31.9783 63.0398C33.5095 63.0398 34.6548 64.0083 34.6548 65.5924C34.67 65.956 34.6107 66.3188 34.4806 66.6586C34.3505 66.9984 34.1523 67.3081 33.8983 67.5686C33.6442 67.8291 33.3396 68.035 33.0031 68.1737C32.6666 68.3123 32.3053 68.3808 31.9414 68.3749C30.0736 68.3749 29.3019 66.9262 29.3019 65.6991C29.298 65.3474 29.3647 64.9985 29.498 64.6731C29.6313 64.3476 29.8286 64.0521 30.0781 63.8042C30.3277 63.5563 30.6244 63.3609 30.9508 63.2296C31.2772 63.0983 31.6266 63.0338 31.9783 63.0398ZM32.122 68.1163C32.7337 68.1163 34.0021 67.7593 34.0021 65.7812C34.0021 64.1397 33.0087 63.2737 31.9496 63.2737C30.8125 63.2737 29.9628 64.0207 29.9628 65.5104C29.9463 67.0945 30.8987 68.1163 32.122 68.1163Z" fill="#0C4264"/>
<path d="M39.2853 66.7415C39.2853 67.8414 39.2853 68.2641 39.0801 68.7483C38.8554 69.1825 38.5105 69.5429 38.0866 69.7866C38.0004 69.8482 37.8896 69.922 37.8239 69.959C37.8076 69.9613 37.791 69.9613 37.7746 69.959C37.7689 69.9595 37.7631 69.9589 37.7577 69.9571C37.7522 69.9553 37.7472 69.9524 37.7429 69.9485C37.7387 69.9446 37.7353 69.9399 37.733 69.9346C37.7306 69.9294 37.7295 69.9237 37.7295 69.9179C37.7295 69.8769 37.7623 69.8564 37.8239 69.8153C37.9109 69.7627 37.9909 69.6993 38.062 69.6265C38.5012 69.1751 38.7147 68.8058 38.7147 67.0616V65.1082C38.7147 64.0494 38.7147 63.877 38.7147 63.639C38.7147 63.401 38.649 63.2984 38.4232 63.2532C38.3476 63.2379 38.2705 63.231 38.1934 63.2327C38.1646 63.2327 38.14 63.2327 38.14 63.1917C38.14 63.1506 38.1728 63.1383 38.2467 63.1383C38.5546 63.1383 38.9815 63.1383 39.0144 63.1383C39.0472 63.1383 39.4782 63.1383 39.6835 63.1383C39.7574 63.1383 39.7902 63.1383 39.7902 63.1917C39.7902 63.245 39.7656 63.2327 39.7369 63.2327C39.6802 63.2333 39.6237 63.2401 39.5685 63.2532C39.3838 63.286 39.3305 63.401 39.314 63.639C39.2976 63.877 39.314 64.0494 39.314 65.1082L39.2853 66.7415Z" fill="#0C4264"/>
<path d="M44.08 65.1082C44.08 64.0494 44.08 63.877 44.08 63.639C44.08 63.401 44.0102 63.2984 43.7845 63.2532C43.7088 63.2379 43.6317 63.231 43.5546 63.2327C43.5259 63.2327 43.5012 63.2327 43.5012 63.1917C43.5012 63.1506 43.5341 63.1383 43.608 63.1383H44.1006H44.3797C44.4249 63.1383 45.7795 63.1383 45.9355 63.1383C46.0333 63.134 46.1307 63.123 46.227 63.1055C46.2639 63.1055 46.2886 63.0685 46.3255 63.0685C46.3624 63.0685 46.3501 63.0973 46.3501 63.1301C46.3501 63.1629 46.3173 63.2614 46.2968 63.4502C46.2968 63.52 46.2762 63.8196 46.2639 63.8975C46.2516 63.9755 46.2434 63.9755 46.2147 63.9755C46.1859 63.9755 46.1613 63.9386 46.1613 63.8852C46.1611 63.8028 46.1473 63.721 46.1202 63.6431C46.071 63.5323 46.0053 63.4502 45.6358 63.4092C45.5209 63.4092 44.7779 63.3886 44.704 63.3886C44.6301 63.3886 44.6629 63.4092 44.6629 63.4584V65.3544C44.6629 65.4037 44.6629 65.4242 44.704 65.4242C44.745 65.4242 45.6317 65.4242 45.7877 65.4242C45.9437 65.4242 46.0464 65.3996 46.1079 65.3298C46.1695 65.26 46.1818 65.2436 46.2064 65.2436C46.2311 65.2436 46.2434 65.2436 46.2434 65.2969C46.2434 65.3503 46.2065 65.4529 46.1859 65.6786C46.1859 65.814 46.1613 66.0644 46.1613 66.1136C46.1613 66.1629 46.1613 66.2409 46.112 66.2409C46.0628 66.2409 46.0669 66.2162 46.0669 66.1793C46.0703 66.1043 46.0606 66.0293 46.0381 65.9577C46.0094 65.8592 45.9478 65.7443 45.6851 65.7197C45.5004 65.6991 44.8271 65.6827 44.7122 65.6827C44.7056 65.6821 44.6989 65.6829 44.6926 65.6852C44.6864 65.6874 44.6807 65.691 44.676 65.6957C44.6713 65.7004 44.6677 65.7061 44.6654 65.7124C44.6631 65.7187 44.6623 65.7253 44.6629 65.732V66.3311C44.6629 66.561 44.6629 67.3489 44.6629 67.4925C44.6835 67.9645 44.7861 68.0507 45.4511 68.0507C45.6726 68.0627 45.8946 68.0378 46.1079 67.9768C46.2844 67.9029 46.3624 67.7634 46.4117 67.4884C46.4117 67.4105 46.4404 67.3858 46.4733 67.3858C46.5061 67.3858 46.5143 67.4392 46.5143 67.4884C46.4964 67.7088 46.4663 67.928 46.424 68.145C46.3789 68.3215 46.3255 68.3215 46.0587 68.3215C45.5496 68.3215 45.172 68.3215 44.9092 68.301L44.3797 68.2805H44.1047C43.9692 68.2805 43.8132 68.2805 43.6942 68.2805C43.5751 68.2805 43.5874 68.2805 43.5874 68.2271C43.5874 68.1738 43.5874 68.1861 43.6408 68.1861C43.7098 68.184 43.7785 68.1757 43.846 68.1615C43.9815 68.1327 44.0144 67.9809 44.0431 67.7839C44.0759 67.5007 44.0759 66.9631 44.0759 66.3106L44.08 65.1082Z" fill="#0C4264"/>
<path d="M50.8287 67.6403C50.5549 67.3832 50.3398 67.0701 50.1981 66.7224C50.0565 66.3746 49.9915 66.0004 50.0077 65.6253C50.0145 64.9319 50.2879 64.2677 50.7712 63.7703C51.0474 63.5118 51.3742 63.3133 51.7311 63.1876C52.0879 63.0619 52.467 63.0115 52.8443 63.0398C53.1744 63.039 53.504 63.0665 53.8295 63.1219C54.0582 63.1712 54.29 63.2055 54.5232 63.2245C54.6012 63.2245 54.6135 63.2573 54.6135 63.2984C54.6135 63.3394 54.593 63.4379 54.5807 63.68C54.5684 63.9222 54.5807 64.2792 54.5602 64.3818C54.5396 64.4844 54.5602 64.5254 54.4986 64.5254C54.437 64.5254 54.4452 64.4762 54.4452 64.3818C54.4476 64.2526 54.4233 64.1244 54.3738 64.0051C54.3244 63.8857 54.2509 63.7779 54.1579 63.6882C53.7584 63.4162 53.2821 63.2796 52.7991 63.2984C52.5177 63.2705 52.2336 63.3002 51.964 63.3856C51.6944 63.4709 51.445 63.6102 51.231 63.7949C51.0084 64.0306 50.8388 64.311 50.7333 64.6174C50.6278 64.9239 50.589 65.2493 50.6193 65.5719C50.6161 65.8973 50.6774 66.2202 50.7997 66.5218C50.922 66.8234 51.1029 67.0977 51.332 67.329C51.561 67.5603 51.8336 67.7438 52.1341 67.8691C52.4345 67.9944 52.7568 68.0589 53.0824 68.0589C53.2929 68.0855 53.5066 68.0691 53.7106 68.0105C53.9145 67.9519 54.1044 67.8525 54.2687 67.7183C54.3983 67.5519 54.4844 67.3558 54.5191 67.1478C54.5191 67.0739 54.5479 67.0452 54.5889 67.0452C54.63 67.0452 54.6341 67.0945 54.6341 67.1478C54.6023 67.4405 54.553 67.731 54.4863 68.0178C54.4452 68.1492 54.4329 68.1615 54.3098 68.2148C53.9105 68.3338 53.4947 68.3878 53.0782 68.3749C52.2614 68.4318 51.4545 68.1683 50.8287 67.6403Z" fill="#0C4264"/>
<path d="M60.2211 66.3065C60.2211 66.959 60.2211 67.4966 60.2539 67.7798C60.2539 67.9768 60.3155 68.1286 60.5207 68.1574C60.6152 68.1574 60.7629 68.182 60.8245 68.182C60.8861 68.182 60.882 68.2025 60.882 68.223C60.882 68.2436 60.8451 68.2764 60.7712 68.2764C60.3976 68.2764 59.9501 68.2559 59.9501 68.2559C59.9501 68.2559 59.4904 68.2764 59.2851 68.2764C59.2112 68.2764 59.1743 68.2764 59.1743 68.223C59.1743 68.1697 59.1743 68.182 59.2318 68.182C59.2994 68.1799 59.3667 68.1716 59.4329 68.1574C59.5725 68.1286 59.6053 67.9768 59.63 67.7798C59.6669 67.4966 59.6669 66.959 59.6669 66.3065V63.4338H58.657C58.2465 63.4338 58.0741 63.4872 57.9633 63.6513C57.9176 63.7182 57.8791 63.7897 57.8484 63.8647C57.8278 63.9181 57.8073 63.9304 57.7827 63.9304C57.7581 63.9304 57.7457 63.9099 57.7457 63.8688C57.7457 63.8278 57.8853 63.2163 57.8976 63.1629C57.9099 63.1096 57.9387 63.0316 57.9633 63.0316C58.0595 63.0711 58.1601 63.0986 58.263 63.1137C58.46 63.1342 58.7186 63.1506 58.8007 63.1506H61.3541C61.515 63.1532 61.6758 63.1409 61.8344 63.1137C61.937 63.1137 61.9986 63.0809 62.0273 63.0809C62.056 63.0809 62.0601 63.1219 62.0601 63.1629C62.0601 63.3681 62.0396 63.836 62.0396 63.9099C62.0396 63.9837 62.0396 64.0001 61.9904 64.0001C61.9411 64.0001 61.9452 63.9796 61.937 63.8852V63.8073C61.937 63.6062 61.7523 63.4461 61.116 63.4338H60.258L60.2211 66.3065Z" fill="#0C4264"/>
<path d="M65.5042 68.1902C65.4098 68.141 65.4016 68.1163 65.4016 67.9317C65.4016 67.591 65.4303 67.3202 65.4386 67.2094C65.4468 67.0986 65.4386 67.1027 65.4919 67.1027C65.5453 67.1027 65.5412 67.1232 65.5412 67.1765C65.5323 67.2597 65.5323 67.3437 65.5412 67.4269C65.5948 67.6455 65.7268 67.837 65.9122 67.9648C66.0975 68.0926 66.3234 68.148 66.5469 68.1204C66.6711 68.1294 66.7958 68.1128 66.9133 68.0715C67.0308 68.0303 67.1385 67.9653 67.2298 67.8806C67.3211 67.7959 67.3939 67.6933 67.4438 67.5792C67.4937 67.4652 67.5196 67.3421 67.5198 67.2176C67.5198 66.7497 67.3228 66.4748 66.7358 65.9864L66.432 65.732C65.7095 65.141 65.5453 64.7183 65.5453 64.2587C65.5453 63.5282 66.0913 63.0275 66.9533 63.0275C67.1661 63.0247 67.3784 63.0481 67.5855 63.0973C67.6633 63.1176 67.7432 63.1286 67.8236 63.1301C67.8811 63.1301 67.8934 63.1301 67.8934 63.1794C67.8934 63.2286 67.8646 63.4379 67.8646 63.8975C67.8646 64.0083 67.8646 64.0576 67.8195 64.0576C67.7743 64.0576 67.7702 64.0207 67.762 63.9673C67.7518 63.8499 67.7227 63.7348 67.6758 63.6267C67.6347 63.5528 67.45 63.2655 66.8261 63.2655C66.719 63.2593 66.6119 63.2752 66.5114 63.3125C66.4108 63.3497 66.3191 63.4073 66.242 63.4817C66.1648 63.5561 66.1039 63.6457 66.0632 63.7448C66.0224 63.844 66.0026 63.9504 66.0051 64.0576C66.0051 64.4434 66.1816 64.6896 66.8261 65.1985L67.0149 65.3462C67.8359 65.9823 68.0083 66.4009 68.0083 66.9467C68.0074 67.1666 67.9549 67.3833 67.8551 67.5793C67.7553 67.7753 67.6109 67.9451 67.4336 68.0753C67.1274 68.2736 66.7679 68.3738 66.4032 68.3626C66.0944 68.3735 65.7871 68.3146 65.5042 68.1902Z" fill="#0C4264"/>
</svg>
